<svg xmlns="http://www.w3.org/2000/svg" width="49.989" height="31.104"><path fill="#575858" d="M45.144 4.402H32.619V1.291h12.526v3.111h-.001zM24.28 17.16c.808 1.251 1.212 2.771 1.212 4.556 0 1.846-.455 3.501-1.382 4.964a8.608 8.608 0 0 1-2.2 2.442c-.99.761-2.163 1.283-3.511 1.562-1.352.279-2.814.421-4.392.421H0V0h15.021c3.786.062 6.471 1.158 8.057 3.313.951 1.322 1.422 2.907 1.422 4.75 0 1.902-.478 3.423-1.438 4.58-.534.647-1.324 1.236-2.368 1.77 1.582.578 2.784 1.49 3.586 2.747zM7.174 12.263h6.581c1.354 0 2.447-.257 3.288-.771.842-.514 1.262-1.426 1.262-2.735 0-1.446-.556-2.407-1.671-2.868-.958-.322-2.184-.487-3.671-.487H7.174v6.861zm11.764 9.008c0-1.615-.66-2.732-1.978-3.331-.738-.342-1.778-.516-3.11-.527H7.174v8.288h6.573c1.35 0 2.395-.176 3.149-.545 1.361-.677 2.042-1.968 2.042-3.885zm30.853-5.059c.151 1.018.22 2.494.192 4.424H33.762c.09 2.239.862 3.805 2.328 4.701.884.562 1.956.836 3.211.836 1.323 0 2.403-.334 3.233-1.022.452-.364.852-.879 1.196-1.528h5.946c-.156 1.322-.872 2.663-2.158 4.026-1.994 2.167-4.789 3.253-8.38 3.253-2.966 0-5.579-.916-7.849-2.742-2.262-1.832-3.396-4.804-3.396-8.925 0-3.865 1.02-6.824 3.065-8.883 2.054-2.063 4.703-3.09 7.971-3.09 1.937 0 3.682.346 5.239 1.042 1.552.696 2.835 1.793 3.845 3.3.916 1.326 1.504 2.86 1.778 4.608zm-5.853.58c-.108-1.549-.626-2.72-1.557-3.521-.923-.802-2.076-1.206-3.452-1.206-1.497 0-2.654.432-3.476 1.278-.827.845-1.343 1.994-1.553 3.449h10.038z"/></svg>