<svg xmlns="http://www.w3.org/2000/svg" width="200" height="200"><path d="M108.314 83.484c-.301.248-.753.43-.891.745-3.407 7.849-9.273 13.551-16.053 18.453-4.596 3.322-9.531 6.021-14.963 7.722 2.595 4.056 5.194 8.031 7.693 12.069 1.016 1.637 1.892 3.376 2.677 5.141.827 1.845-.068 3.709-2.065 3.764-3.005.083-6.085-.009-9.032-.566-6.944-1.311-13.815-3.001-20.741-4.418-1.713-.348-3.531-.274-5.3-.251-.525.005-1.101.407-1.562.749-3.121 2.298-6.168 4.696-9.338 6.918-1.051.735-2.413 1.027-3.633 1.521-.146-.219-.287-.439-.429-.658.63-.708 1.188-1.499 1.9-2.119a62.422 62.422 0 0 1 10.572-7.415c3.015-1.672 5.569-4.171 8.319-6.314 1.951-1.521 3.883-3.07 5.688-4.884-3.691.836-7.369 1.714-11.07 2.495-3.229.675-6.492 1.211-9.721 1.896-1.065.229-2.051.809-3.116 1.078-.502.133-1.092-.077-1.64-.128.229-.575.319-1.298.727-1.69.388-.37 1.11-.539 1.69-.557 6.79-.207 13.231-2.34 19.837-3.536 1.896-.343 3.774-.781 5.656-1.207.242-.055.448-.255.59-.667h-5.341c-.031-.183-.068-.36-.1-.544.832-.21 1.654-.534 2.494-.599 1.489-.113 2.998.011 4.482-.104 1.937-.146 2.649-1.338 1.941-3.061-.397-.973-.772-1.955-1.188-2.919-.544-1.262-.407-2.267 1.132-2.888-3.865-5.035-7.606-10.101-12.422-14.263-.411-.356-.553-1.028-.817-1.549.585.087 1.379-.037 1.723.297 2.014 1.974 4.042 3.956 5.847 6.112 3.376 4.035 6.611 8.188 9.904 12.291.275.342.571.666.937 1.083 3.55-2.614 7.049-5.227 10.594-7.78 7.101-5.113 14.304-10.056 22.281-13.748 1.763-.817 1.617-2.7 1.786-4.184.658-5.807-2.129-10.166-7.661-12.043-5.413-1.841-10.996-2.188-16.689-1.805-6.862.466-13.6 1.549-20.188 3.472-10.375 3.029-19.32 8.443-26.703 16.369-.53.567-.964 1.361-1.896.353 3.281-3.919 7.173-7.173 11.408-10.033 7.977-5.391 16.881-8.346 26.282-10.001 5.734-1.009 11.518-1.708 17.33-1.278 3.494.256 7.053.722 10.401 1.712 6.963 2.051 10.116 7.836 8.635 14.962-.09.435.109.923.174 1.39.197.018.394.041.585.063-.256.197-.503.393-.759.589l.033-.035zm-58.326 41.835c.26.164.343.27.429.27 6.241.009 12.253 1.531 18.339 2.655 4.655.857 9.355 1.521 14.066 2.014 2.367.251 3.244-1.184 2.038-3.248-2.641-4.528-5.565-8.891-8.21-13.417-1.371-2.35-2.965-2.642-5.519-2.003-4.006 1.006-7.793 2.116-10.836 5.159-1.828 1.826-3.998 3.321-6.008 4.975-1.421 1.174-2.838 2.366-4.299 3.595zm23.431-18.845c2.462 3.386 1.367 3.44 5.236 1.86 9.777-3.993 18.031-10.069 24.315-18.645 1.081-1.48 1.94-3.125 2.903-4.692a20.758 20.758 0 0 1-.351-.288c-11.334 6.264-21.727 13.917-32.103 21.765zm-4.975 1.992l.462.178c.425-.666 1.266-1.375 1.197-1.986-.165-1.453-1.033-2.632-2.344-3.318-.147.075-.297.147-.443.221.379 1.643.754 3.269 1.128 4.905zm.631 2.531c1.7-.415 3.08-.755 4.646-1.138-.667-.859-1.183-1.536-1.891-2.448-.713 1.405-2.636 1.435-2.755 3.586zM128.969 81.461c.851.283 1.421.384 1.905.648 1.745.927 2.984.804 4.227-.785.995-1.28 1.718-.892 2.453.119.421.575.721 1.243 1.068 1.873.312.571.617 1.147 1.057 1.969 2.114-2.362 4.092-4.583 6.079-6.803l.27.22c-1.589 2.092-3.111 4.24-4.805 6.245-.859 1.023-.938 1.814-.239 2.924.801 1.256 1.426 2.628 2.111 3.948 1.051 2.015.837 3.842-.974 5.177-4.626 3.402-9.899 4.157-15.463 3.33-.375-.054-.955-.593-.96-.914-.005-.525.237-1.356.626-1.544 4.989-2.467 8.27-6.766 11.837-10.768.576-.644.749-1.143.219-1.865-.429-.575-.748-1.229-1.174-1.809-1.005-1.383-1.283-1.394-2.417-.068-.917 1.068-2.036 1.233-3.308.799-1.132-.39-2.365-.668-2.512-2.696zm10.713 5.985c-4.056 3.938-8.063 7.83-12.093 11.746 4.501.47 8.992-.073 13.111-2.394 1.966-1.105 2.432-3.08 1.453-5.021-.762-1.522-1.69-2.969-2.471-4.331zM124.968 110.627c-.267 2.718-1.221 3.5-3.582 2.877-1.938-.507-3.733-.286-5.684.129-1.641.348-3.253.456-4.614 1.575-.246.202-.755.134-1.133.102-2.421-.196-4.807-.279-6.977 1.174-.288.191-.973-.205-1.475-.329.159-.47.173-1.165.497-1.37 1.388-.868 2.811-1.389 4.614-1.293 2.586.129 5.217-.315 7.804-.663.479-.063.863-.808 1.311-1.214 1.17-1.075 2.462-1.45 3.929-.612 2.779 1.584 3.021 1.574 5.31-.376zM148.354 77.929c.215.462.401.941.658 1.379.484.854.841 2.056 1.58 2.408.673.319 1.992-.042 2.673-.567 1.476-1.127 2.947-2.421 2.146-4.719-.104-.297.421-1.01.822-1.224.27-.147 1.057.109 1.216.397.612 1.119 1.444.914 2.239.456 1.389-.794 2.713-1.704 4.058-2.572.579-.375 1.138-.776 1.703-1.165.105.16.219.324.324.485-2.386 1.585-4.782 3.165-7.159 4.764-.745.503-1.513 1.011-2.151 1.636-.667.658-1.17 1.472-1.772 2.188-1.522 1.809-3.317 2.421-4.935 1.699-1.842-.817-2.381-2.178-1.937-4.883.173-.089.352-.186.535-.282z"/><path d="M130.093 85.546c-.981 1.165-2.257 1.712-3.851 1.895-1.042.114-2.048.571-3.053.918-1.863.648-3.71 1.361-5.587 1.956-.366.113-.859-.174-1.293-.279a15.69 15.69 0 0 0-.073-.498c.604-.27 1.188-.576 1.804-.8.983-.356 2.017-.58 2.971-.996 1.197-.521 1.974-1.284 1.636-2.846-.11-.526.416-1.544.9-1.759.977-.424 1.361.329 1.612 1.279.502 1.923 1.534 2.294 3.362 1.375.438-.219.878-.429 1.32-.639.088.127.171.261.252.394zM91.452 119.028l-1.992 1.708c.266-1.914.439-3.404.727-4.865.017-.1 1.046-.232 1.311-.009.426.37.58 1.046.896 1.559 1.868 3.046 4.711 3.426 7.319.977.191-.187.315-.448.475-.672.18.073.357.138.536.211-.129.533-.124 1.161-.413 1.59-1.485 2.192-4.125 2.736-6.41 1.329-.845-.521-1.594-1.184-2.449-1.828zM141.374 103.56c.537.429 1.127.809 1.612 1.292 1.051 1.061 1.877.945 2.429-.076-.871-.709-1.949-1.216-2.38-2.052-.311-.604.032-1.809.498-2.426.225-.302 1.596-.137 2.13.256 1.817 1.334 2.038 4.17.562 5.303-2.101 1.603-4.344.727-4.851-2.297zM108.734 91.301v-3.664c2.094 1.229 3.86 2.265 5.885 3.458.051 1.383-.424 1.443-3.901-.156-.11.356-.159.722-.328 1.019-.34.594-.623 1.348-1.151 1.672-.521.32-1.326.243-2.003.206-.095-.004-.342-.904-.173-1.155.315-.466.886-.763 1.671-1.38zM135.142 108.083c-.981.466-1.879.698-3.229.141-1.103-.456-2.646.175-3.569.279-.264 1.251-.364 2.047-.644 2.764-.05.124-1.027.105-1.292-.143-.229-.21-.046-.854-.046-1.521-.28-.329-.763-.909-1.421-1.69 3.704-.922 6.971-2.727 10.201.17zM136.339 103.325c1.355 1.253 2.493 2.317 3.951 3.674-.097.173-.406.718-.708 1.265-.571-.355-1.17-.671-1.695-1.081-.375-.294-.584-.865-.987-1.046-1.152-.527-1.165-1.308-.561-2.812zM108.269 83.525a279.25 279.25 0 0 0 2.124-.287c-.553.955-.822 1.54-1.214 2.019-.102.132-.852-.019-.859-.091-.064-.558-.019-1.124-.005-1.686a.638.638 0 0 1-.046.045z"/><g><g transform="translate(1 1)" fill="none" stroke="#AAA"><circle stroke-opacity=".5" cx="99" cy="99" r="94.737"/><path d="M193.736 99c0-52.316-42.42-94.737-94.736-94.737"><animateTransform fill="remove" type="rotate" attributeName="transform" additive="replace" calcMode="linear" accumulate="none" repeatCount="indefinite" restart="always" to="360 100 100" from="0 100 100" dur="1s"/></path></g></g></svg>