<svg xmlns="http://www.w3.org/2000/svg" width="129.781" height="49.453"><g fill="#EBEDED"><path d="M1.619 21.77V.225h8.284c1.78 0 3.348.283 4.704.85 1.355.566 2.488 1.335 3.399 2.306a9.692 9.692 0 0 1 2.063 3.414 12.34 12.34 0 0 1 .698 4.173c0 1.639-.258 3.121-.774 4.445-.516 1.325-1.249 2.458-2.2 3.398-.951.941-2.094 1.669-3.429 2.186-1.335.516-2.822.773-4.461.773H1.619zm13.139-10.803c0-.829-.111-1.588-.334-2.276-.223-.688-.542-1.274-.956-1.76a4.321 4.321 0 0 0-1.533-1.138c-.607-.273-1.285-.41-2.033-.41H7.536V16.61h2.367c.769 0 1.457-.141 2.063-.425a4.297 4.297 0 0 0 1.533-1.183 5.223 5.223 0 0 0 .94-1.791 7.545 7.545 0 0 0 .319-2.244zM22.375 21.77V.225h5.917V21.77h-5.917zM46.377 16.61v5.159H31.022V.225h15.082v5.158H36.94v3.035h7.829v4.794H36.94v3.398h9.437zM62.46 19.979c-1.538 1.295-3.308 1.941-5.311 1.941-1.396 0-2.731-.247-4.005-.743a9.567 9.567 0 0 1-3.338-2.17c-.951-.95-1.71-2.113-2.276-3.489-.567-1.376-.85-2.943-.85-4.704 0-1.517.283-2.928.85-4.232a10.493 10.493 0 0 1 2.336-3.399A11.035 11.035 0 0 1 53.371.908c1.345-.557 2.796-.835 4.354-.835.971 0 1.901.106 2.792.319.89.212 1.714.526 2.473.94a9.76 9.76 0 0 1 2.048 1.486 7.549 7.549 0 0 1 1.487 1.958l-4.401 3.368c-.425-.85-1.062-1.532-1.912-2.049a5.12 5.12 0 0 0-2.701-.773c-.708 0-1.355.142-1.942.425-.587.283-1.093.678-1.518 1.184s-.758 1.107-1.001 1.806a6.927 6.927 0 0 0-.364 2.291c0 .85.121 1.619.364 2.307a5.354 5.354 0 0 0 1.017 1.774c.435.496.956.88 1.563 1.153s1.284.41 2.033.41c1.719 0 3.236-.708 4.552-2.125h-3.732v-4.248h8.86V21.77H62.46v-1.791zM78.998 21.951c-1.639 0-3.125-.313-4.461-.94-1.334-.627-2.478-1.451-3.428-2.473a11.216 11.216 0 0 1-2.216-3.505 10.856 10.856 0 0 1-.789-4.066c0-1.416.273-2.781.819-4.097a10.89 10.89 0 0 1 2.291-3.475 11.138 11.138 0 0 1 3.49-2.397C76.049.401 77.52.102 79.119.102c1.639 0 3.126.314 4.46.941a10.907 10.907 0 0 1 3.43 2.488 11.155 11.155 0 0 1 2.2 3.52c.516 1.315.774 2.661.774 4.036 0 1.416-.273 2.776-.82 4.081a11.062 11.062 0 0 1-2.275 3.46 11.19 11.19 0 0 1-3.475 2.412c-1.345.608-2.816.911-4.415.911zm-4.885-10.924c0 .729.101 1.432.303 2.109a5.54 5.54 0 0 0 .91 1.805 4.61 4.61 0 0 0 1.533 1.275c.617.323 1.35.485 2.199.485.851 0 1.589-.167 2.216-.501s1.138-.769 1.532-1.305.688-1.148.881-1.836a7.794 7.794 0 0 0 .287-2.094c0-.729-.101-1.432-.303-2.109-.203-.678-.512-1.274-.926-1.79s-.931-.931-1.547-1.244c-.617-.313-1.341-.471-2.17-.471-.85 0-1.584.162-2.2.485a4.513 4.513 0 0 0-1.532 1.29 5.49 5.49 0 0 0-.896 1.82 7.662 7.662 0 0 0-.287 2.081z"/><g><path d="M18.399 32.86h-6.19v16.387H6.292V32.86H.071v-5.158H18.4v5.158zM34.938 44.088v5.159H19.583V27.702h15.082v5.158H25.5v3.035h7.829v4.794H25.5v3.398h9.438zM42.645 38.656v10.591h-5.917V27.702h4.612l8.648 10.954V27.702h5.917v21.545h-4.704l-8.556-10.591zM68.348 49.429c-1.639 0-3.126-.313-4.461-.94-1.335-.627-2.479-1.451-3.429-2.473a11.195 11.195 0 0 1-2.215-3.505 10.856 10.856 0 0 1-.789-4.066c0-1.416.273-2.781.819-4.097a10.874 10.874 0 0 1 2.291-3.475 11.145 11.145 0 0 1 3.489-2.397c1.346-.597 2.817-.896 4.416-.896 1.639 0 3.125.314 4.461.941a10.914 10.914 0 0 1 3.429 2.488 11.155 11.155 0 0 1 2.2 3.52c.516 1.315.773 2.661.773 4.036 0 1.416-.273 2.776-.818 4.081a11.068 11.068 0 0 1-2.277 3.46 11.185 11.185 0 0 1-3.474 2.412c-1.346.608-2.818.911-4.415.911zm-4.887-10.924c0 .729.101 1.432.304 2.109.201.678.505 1.279.91 1.805.404.526.914.951 1.532 1.275.616.323 1.351.485 2.2.485s1.588-.167 2.215-.501 1.139-.769 1.533-1.305.688-1.148.879-1.836a7.756 7.756 0 0 0 .289-2.094c0-.729-.102-1.432-.304-2.109s-.511-1.274-.926-1.79-.931-.931-1.548-1.244-1.34-.471-2.17-.471c-.85 0-1.582.162-2.199.485-.617.324-1.129.754-1.533 1.29s-.703 1.144-.895 1.82a7.696 7.696 0 0 0-.287 2.081zm7.01-11.714l-3.641-.971 1.518-4.309h5.128l-3.005 5.28zM80.88 49.247V27.702h9.893c1.052 0 2.022.218 2.913.652s1.654 1.001 2.291 1.699 1.139 1.497 1.502 2.397c.364.9.547 1.806.547 2.716a7.657 7.657 0 0 1-.82 3.505 7.137 7.137 0 0 1-2.275 2.655l4.552 7.92h-6.676l-3.794-6.615h-2.215v6.615H80.88zm5.917-11.774h3.732c.365 0 .703-.201 1.018-.606.313-.404.47-.971.47-1.699 0-.748-.183-1.32-.546-1.715-.364-.395-.729-.592-1.093-.592h-3.581v4.612zM100.392 49.247V27.702h5.917v21.545h-5.917zM118.75 49.429c-1.639 0-3.125-.313-4.461-.94-1.335-.627-2.479-1.451-3.429-2.473a11.216 11.216 0 0 1-2.216-3.505 10.876 10.876 0 0 1-.789-4.066c0-1.416.273-2.781.82-4.097a10.857 10.857 0 0 1 2.291-3.475 11.134 11.134 0 0 1 3.489-2.397c1.345-.597 2.817-.896 4.415-.896 1.639 0 3.126.314 4.461.941a10.907 10.907 0 0 1 3.43 2.488 11.152 11.152 0 0 1 2.199 3.52c.516 1.315.774 2.661.774 4.036a10.47 10.47 0 0 1-.819 4.081 11.065 11.065 0 0 1-2.276 3.46 11.197 11.197 0 0 1-3.474 2.412c-1.345.608-2.817.911-4.415.911zm-4.886-10.924c0 .729.101 1.432.304 2.109a5.52 5.52 0 0 0 .91 1.805 4.59 4.59 0 0 0 1.533 1.275c.616.323 1.35.485 2.199.485s1.588-.167 2.215-.501 1.139-.769 1.533-1.305.688-1.148.88-1.836.288-1.386.288-2.094c0-.729-.102-1.432-.303-2.109a5.218 5.218 0 0 0-.926-1.79 4.68 4.68 0 0 0-1.548-1.244c-.617-.313-1.341-.471-2.17-.471-.85 0-1.583.162-2.2.485a4.522 4.522 0 0 0-1.532 1.29 5.49 5.49 0 0 0-.896 1.82 7.696 7.696 0 0 0-.287 2.081z"/></g></g></svg>