<svg xmlns="http://www.w3.org/2000/svg" width="47.156" height="35.488"><path fill-rule="evenodd" clip-rule="evenodd" fill="#585959" d="M0 35.488V.004h46.943c.043 0 .09-.011.127.003a.175.175 0 0 1 .079.082c.013.028.003.067.003.102l-.001 35.114c0 .202.024.184-.186.184H.181L0 35.488zm5.412-32.33l-.044.049c.047.029.102.051.14.089l16.697 16.695c.026.027.053.056.081.081.333.299.702.531 1.156.579.506.053.936-.159 1.293-.48.478-.431.922-.899 1.377-1.354L41.64 3.29c.037-.037.072-.075.126-.132H5.412zm.009 29.164h36.286L29.371 19.986c-.017.022-.041.063-.074.097-.718.719-1.431 1.44-2.156 2.151-.23.226-.478.439-.741.623-1.068.745-2.239 1.104-3.549.889a5.047 5.047 0 0 1-2.678-1.345c-.796-.753-1.555-1.546-2.33-2.32A11656230905004932 11656230905004932 0 0 0 5.421 32.322zM43.994 5.44L31.688 17.747l12.306 12.306V5.44zM3.149 30.056l12.298-12.298C11.353 13.662 7.242 9.553 3.149 5.459v24.597z"/></svg>