<svg xmlns="http://www.w3.org/2000/svg" width="39.804" height="39.892"><g fill-rule="evenodd" clip-rule="evenodd" fill="#575858"><path d="M0 39.892c.277-.822.539-1.603.803-2.381.88-2.597 1.764-5.191 2.633-7.791a.655.655 0 0 0-.048-.476c-1.055-1.824-1.839-3.755-2.246-5.823-1.083-5.493-.073-10.572 3.155-15.159 2.515-3.574 5.898-6.009 10.06-7.341a19.154 19.154 0 0 1 7.351-.864c4.806.366 8.951 2.22 12.388 5.587 2.931 2.869 4.775 6.346 5.487 10.4.842 4.791-.007 9.279-2.512 13.437-1.876 3.114-4.466 5.495-7.688 7.183a19.24 19.24 0 0 1-5.988 1.971 19.935 19.935 0 0 1-5.148.124 19.717 19.717 0 0 1-6.145-1.673c-.347-.156-.676-.353-1.027-.498a.775.775 0 0 0-.486-.036C7.175 37.625 3.764 38.709.353 39.79c-.103.031-.205.059-.353.102zm4.922-4.805c2.062-.654 4.042-1.279 6.019-1.918a.618.618 0 0 1 .576.068 16.236 16.236 0 0 0 5.707 2.241c3.481.647 6.827.249 10.039-1.25 2.984-1.393 5.346-3.487 7.081-6.284 2.12-3.421 2.854-7.135 2.212-11.092-.76-4.682-3.21-8.324-7.102-10.981-2.267-1.548-4.798-2.442-7.547-2.69-3.57-.32-6.905.396-10 2.221a16.412 16.412 0 0 0-5.256 4.918 15.885 15.885 0 0 0-2.592 6.431c-.302 1.8-.297 3.607.01 5.402a15.825 15.825 0 0 0 2.721 6.583c.142.198.161.37.08.601-.5 1.439-.984 2.883-1.473 4.326-.152.449-.3.9-.475 1.424z"/><path d="M14.231 10.599c.076 0 .154.01.229-.002.673-.111 1.03.242 1.267.82.498 1.219 1.012 2.43 1.52 3.645.198.475-.049.859-.296 1.211-.294.418-.643.797-.975 1.186-.306.359-.353.572-.109.973.917 1.515 2.039 2.85 3.462 3.921.947.712 1.99 1.248 3.078 1.701.528.22.744.162 1.111-.282.451-.546.896-1.097 1.34-1.648.367-.459.601-.547 1.13-.304 1.305.601 2.597 1.226 3.896 1.839.301.143.371.393.375.698.023 1.772-.831 2.969-2.406 3.695-1.165.537-2.363.706-3.619.335-1.546-.456-3.076-.958-4.517-1.689-1.539-.782-2.871-1.848-4.082-3.072-1.541-1.558-2.871-3.278-3.938-5.191-.668-1.198-1.035-2.487-.907-3.884.135-1.465.793-2.653 1.896-3.604.379-.328.653-.378 1.545-.348z"/></g></svg>