<?xml version="1.0" encoding="utf-8"?>
<!-- Generator: Adobe Illustrator 23.0.6, SVG Export Plug-In . SVG Version: 6.00 Build 0)  -->
<svg version="1.1" id="Layer_1" xmlns="http://www.w3.org/2000/svg" xmlns:xlink="http://www.w3.org/1999/xlink" x="0px" y="0px"
	 viewBox="0 0 143 76.8" style="enable-background:new 0 0 143 76.8;" xml:space="preserve">
<path d="M80.6,20.4c-0.3,0.3-0.8,0.5-1,0.8C75.9,29.8,69.5,36,62.1,41.3c-5,3.6-10.4,6.6-16.3,8.4c2.8,4.4,5.6,8.7,8.4,13.1
	c1.1,1.8,2.1,3.7,2.9,5.6c0.9,2-0.1,4-2.2,4.1c-3.3,0.1-6.6,0-9.8-0.6c-7.5-1.4-15-3.3-22.6-4.8c-1.9-0.4-3.8-0.3-5.8-0.3
	c-0.6,0-1.2,0.4-1.7,0.8c-3.4,2.5-6.7,5.1-10.2,7.5c-1.1,0.8-2.6,1.1-4,1.7l-0.5-0.7c0.7-0.8,1.3-1.6,2.1-2.3
	C6.1,70.7,9.9,68,14,65.7c3.3-1.8,6.1-4.5,9-6.9c2.1-1.7,4.2-3.3,6.2-5.3c-4,0.9-8,1.9-12,2.7c-3.5,0.7-7.1,1.3-10.6,2.1
	c-1.2,0.2-2.2,0.9-3.4,1.2c-0.5,0.1-1.2-0.1-1.8-0.1c0.2-0.6,0.3-1.4,0.8-1.8c0.4-0.4,1.2-0.6,1.8-0.6c7.4-0.2,14.4-2.5,21.6-3.8
	c2.1-0.4,4.1-0.9,6.1-1.3c0.3-0.1,0.5-0.3,0.6-0.7h-5.8l-0.1-0.6c0.9-0.2,1.8-0.6,2.7-0.7c1.6-0.1,3.3,0,4.9-0.1
	c2.1-0.2,2.9-1.5,2.1-3.3c-0.4-1.1-0.8-2.1-1.3-3.2c-0.6-1.4-0.4-2.5,1.2-3.1c-4.2-5.5-8.3-11-13.5-15.5c-0.4-0.4-0.6-1.1-0.9-1.7
	c0.6,0.1,1.5,0,1.9,0.3c2.2,2.1,4.4,4.3,6.4,6.6c3.7,4.4,7.2,8.9,10.8,13.4c0.3,0.4,0.6,0.7,1,1.2c3.9-2.8,7.7-5.7,11.5-8.5
	C61.1,30.3,68.9,25,77.6,21c1.9-0.9,1.8-2.9,1.9-4.5c0.7-6.3-2.3-11.1-8.3-13.1c-5.9-2-12-2.4-18.1-2c-7.5,0.5-14.8,1.7-22,3.8
	c-11.3,3.3-21,9.2-29,17.8C1.5,23.5,1,24.4,0,23.3c3.6-4.3,7.8-7.8,12.4-10.9C21.1,6.5,30.8,3.3,41,1.5c6.2-1.1,12.5-1.9,18.8-1.4
	c3.8,0.3,7.7,0.8,11.3,1.9c7.6,2.2,11,8.5,9.4,16.3c-0.1,0.5,0.1,1,0.2,1.5c0.2,0,0.4,0,0.6,0.1L80.6,20.4
	C80.5,20.5,80.6,20.4,80.6,20.4z M17.1,65.9c0.3,0.2,0.4,0.3,0.5,0.3c6.8,0,13.3,1.7,19.9,2.9c5.1,0.9,10.2,1.7,15.3,2.2
	c2.6,0.3,3.5-1.3,2.2-3.5c-2.9-4.9-6-9.7-8.9-14.6c-1.5-2.6-3.2-2.9-6-2.2c-4.4,1.1-8.5,2.3-11.8,5.6c-2,2-4.3,3.6-6.5,5.4
	C20.3,63.3,18.7,64.6,17.1,65.9z M42.6,45.4c2.7,3.7,1.5,3.7,5.7,2c10.6-4.3,19.6-10.9,26.4-20.3c1.2-1.6,2.1-3.4,3.2-5.1l-0.4-0.3
	C65.2,28.6,53.9,36.9,42.6,45.4z M37.2,47.6c0.2,0.1,0.3,0.1,0.5,0.2c0.5-0.7,1.4-1.5,1.3-2.2c-0.2-1.6-1.1-2.9-2.5-3.6L36,42.3
	L37.2,47.6z M37.9,50.4l5.1-1.2c-0.7-0.9-1.4-1.8-2.1-2.7C40.1,48,38,48,37.9,50.4z M103,18.2c0.9,0.3,1.5,0.4,2.1,0.7
	c1.9,1,3.2,0.9,4.6-0.9c1.1-1.4,1.9-1,2.7,0.1c0.5,0.6,0.8,1.4,1.2,2c0.3,0.6,0.7,1.2,1.2,2.1l6.6-7.4l0.3,0.2
	c-1.7,2.3-3.4,4.6-5.2,6.8c-0.9,1.1-1,2-0.3,3.2c0.9,1.4,1.5,2.9,2.3,4.3c1.1,2.2,0.9,4.2-1.1,5.6c-5,3.7-10.8,4.5-16.8,3.6
	c-0.4-0.1-1-0.6-1-1c0-0.6,0.3-1.5,0.7-1.7c5.4-2.7,9-7.4,12.9-11.7c0.6-0.7,0.8-1.2,0.2-2c-0.5-0.6-0.8-1.3-1.3-2
	c-1.1-1.5-1.4-1.5-2.6-0.1c-1,1.2-2.2,1.3-3.6,0.9C104.5,20.8,103.2,20.5,103,18.2z M114.7,24.8l-13.1,12.8
	c4.9,0.5,9.8-0.1,14.3-2.6c2.1-1.2,2.6-3.3,1.6-5.5C116.5,27.8,115.5,26.2,114.7,24.8z M98.7,50c-0.3,3-1.3,3.8-3.9,3.1
	c-2.1-0.6-4.1-0.3-6.2,0.1c-1.8,0.4-3.5,0.5-5,1.7c-0.3,0.2-0.8,0.1-1.2,0.1c-2.6-0.2-5.2-0.3-7.6,1.3c-0.3,0.2-1.1-0.2-1.6-0.4
	c0.2-0.5,0.2-1.3,0.5-1.5c1.5-0.9,3.1-1.5,5-1.4c2.8,0.1,5.7-0.3,8.5-0.7c0.5-0.1,0.9-0.9,1.4-1.3c1.3-1.2,2.7-1.6,4.3-0.7
	C95.9,52.1,96.2,52.1,98.7,50L98.7,50z M124.1,14.4c0.2,0.5,0.4,1,0.7,1.5c0.5,0.9,0.9,2.2,1.7,2.6c0.7,0.3,2.2,0,2.9-0.6
	c1.6-1.2,3.2-2.6,2.3-5.1c-0.1-0.3,0.5-1.1,0.9-1.3c0.3-0.2,1.1,0.1,1.3,0.4c0.7,1.2,1.6,1,2.4,0.5c1.5-0.9,2.9-1.9,4.4-2.8
	c0.6-0.4,1.2-0.8,1.9-1.3c0.1,0.2,0.2,0.4,0.4,0.5c-2.6,1.7-5.2,3.4-7.8,5.2c-0.8,0.5-1.6,1.1-2.3,1.8c-0.7,0.7-1.3,1.6-1.9,2.4
	c-1.7,2-3.6,2.6-5.4,1.8c-2-0.9-2.6-2.4-2.1-5.3C123.7,14.6,123.9,14.5,124.1,14.4z"/>
<path d="M104.2,22.7c-1.1,1.3-2.5,1.9-4.2,2.1c-1.1,0.1-2.2,0.6-3.3,1c-2,0.7-4,1.5-6.1,2.1c-0.4,0.1-0.9-0.2-1.4-0.3L89.2,27
	c0.7-0.3,1.3-0.6,2-0.9c1.1-0.4,2.2-0.6,3.2-1.1c1.3-0.6,2.1-1.4,1.8-3.1c-0.1-0.6,0.4-1.7,1-1.9c1.1-0.5,1.5,0.4,1.8,1.4
	c0.5,2.1,1.7,2.5,3.7,1.5c0.5-0.2,1-0.5,1.4-0.7C104.1,22.4,104.1,22.5,104.2,22.7z M62.2,59.1l-2.2,1.9c0.3-2.1,0.5-3.7,0.8-5.3
	c0-0.1,1.1-0.3,1.4,0c0.5,0.4,0.6,1.1,1,1.7c2,3.3,5.1,3.7,8,1.1c0.2-0.2,0.3-0.5,0.5-0.7c0.2,0.1,0.4,0.2,0.6,0.2
	c-0.1,0.6-0.1,1.3-0.4,1.7c-1.6,2.4-4.5,3-7,1.4C64,60.5,63.2,59.8,62.2,59.1z M116.5,42.3c0.6,0.5,1.2,0.9,1.8,1.4
	c1.1,1.2,2,1,2.6-0.1c-0.9-0.8-2.1-1.3-2.6-2.2c-0.3-0.7,0-2,0.5-2.6c0.2-0.3,1.7-0.1,2.3,0.3c2,1.5,2.2,4.5,0.6,5.8
	C119.5,46.5,117.1,45.6,116.5,42.3z M81,28.9v-4l6.4,3.8c0.1,1.5-0.5,1.6-4.2-0.2c-0.1,0.4-0.2,0.8-0.4,1.1
	c-0.4,0.6-0.7,1.5-1.2,1.8c-0.6,0.4-1.4,0.3-2.2,0.2c-0.1,0-0.4-1-0.2-1.3C79.5,29.9,80.2,29.6,81,28.9z M109.7,47.2
	c-1.1,0.5-2,0.8-3.5,0.2c-1.2-0.5-2.9,0.2-3.9,0.3c-0.3,1.4-0.4,2.2-0.7,3c-0.1,0.1-1.1,0.1-1.4-0.2c-0.2-0.2-0.1-0.9-0.1-1.7
	c-0.3-0.4-0.8-1-1.5-1.8C102.7,46,106.2,44,109.7,47.2z M111,42l4.3,4c-0.1,0.2-0.4,0.8-0.8,1.4c-0.6-0.4-1.3-0.7-1.8-1.2
	c-0.4-0.3-0.6-0.9-1.1-1.1C110.4,44.5,110.4,43.7,111,42z M80.5,20.5c0.6-0.1,1.1-0.2,2.3-0.3c-0.6,1-0.9,1.7-1.3,2.2
	c-0.1,0.1-0.9,0-0.9-0.1C80.5,21.7,80.6,21.1,80.5,20.5C80.5,20.5,80.5,20.5,80.5,20.5z"/>
</svg>
